<svg width="600" height="600" viewBox="0 0 600 600" fill="none" xmlns="http://www.w3.org/2000/svg">
<g clip-path="url(#clip0_625_5828)">
<rect width="600" height="600" rx="50" fill="#0F193E"/>
<g opacity="0.2" filter="url(#filter0_f_625_5828)">
<circle cx="162.5" cy="121.5" r="193.5" fill="#466FFF"/>
</g>
<g opacity="0.25" filter="url(#filter1_f_625_5828)">
<circle cx="490.5" cy="737.5" r="309.5" fill="#466FFF"/>
</g>
<rect x="57" y="46" width="72" height="31" rx="15.5" fill="white"/>
<rect x="57.4172" y="46.4172" width="71.1657" height="30.1657" rx="15.0828" stroke="#858BEC" stroke-opacity="0.8" stroke-width="0.834335"/>
<g clip-path="url(#clip1_625_5828)">
<path d="M70.2764 64.5384C70.7818 63.8513 71.2561 63.1789 71.7573 62.5314C73.3439 60.4827 75.1832 58.6908 77.2379 57.1245C77.7972 56.6963 78.3792 56.2974 78.9509 55.886C79.1104 55.7711 79.2802 55.6834 79.4252 55.886C79.564 56.0781 79.4252 56.2076 79.2864 56.3267C75.9682 59.1795 73.4061 62.6025 71.6144 66.6123C71.3327 67.2451 70.904 67.5187 70.3489 67.4289C69.9222 67.3599 69.6322 67.1219 69.4582 66.7209C68.9425 65.5263 68.3584 64.3672 67.5671 63.3313C67.1591 62.7967 66.7241 62.2829 66.2975 61.7629C66.1918 61.6334 66.0468 61.5186 66.198 61.3348C66.3555 61.1426 66.5067 61.2554 66.6516 61.3577C67.9172 62.2474 69.1082 63.2227 70.1252 64.4006C70.1666 64.4486 70.2205 64.4883 70.2743 64.5405L70.2764 64.5384Z" fill="#0AAF51"/>
</g>
<path d="M85.0066 64.1031H84.1137V58.2745H86.2892C87.6287 58.2745 88.4324 58.9321 88.4324 60.0929C88.4324 60.9291 87.9047 61.5704 87.0199 61.7814L88.6028 64.1031H87.5313L86.0782 61.9113H85.0066V64.1031ZM85.0066 59.0214V61.1645H86.2324C87.0604 61.1645 87.5313 60.7992 87.5313 60.0929C87.5313 59.3948 87.0604 59.0214 86.2324 59.0214H85.0066ZM90.9634 64.1843C89.7214 64.1843 88.8853 63.2832 88.8853 61.9276C88.8853 60.6531 89.7539 59.7195 90.9391 59.7195C92.2217 59.7195 93.0741 60.7586 92.9279 62.1549H89.7214C89.7863 63.0316 90.2247 63.543 90.9472 63.543C91.556 63.543 91.9782 63.2102 92.1162 62.6501H92.9279C92.7169 63.608 91.9782 64.1843 90.9634 64.1843ZM90.9228 60.3365C90.2653 60.3365 89.8188 60.8073 89.7295 61.611H92.0593C92.0187 60.8154 91.5885 60.3365 90.9228 60.3365ZM97.2092 62.8205C97.2092 63.6648 96.5516 64.1843 95.407 64.1843C94.2705 64.1843 93.5967 63.6242 93.5155 62.6988H94.303C94.3354 63.2345 94.7657 63.5674 95.4232 63.5674C95.9996 63.5674 96.3811 63.3644 96.3811 62.9585C96.3811 62.6013 96.162 62.4471 95.6262 62.3416L94.928 62.2117C94.1325 62.0574 93.686 61.6516 93.686 61.0021C93.686 60.2472 94.3436 59.7195 95.3421 59.7195C96.373 59.7195 97.0712 60.2715 97.1442 61.1564H96.3568C96.3081 60.6368 95.9265 60.3365 95.3502 60.3365C94.8306 60.3365 94.4816 60.5556 94.4816 60.9291C94.4816 61.2781 94.7007 61.4405 95.2203 61.5379L95.9509 61.6759C96.8033 61.8301 97.2092 62.2036 97.2092 62.8205ZM99.9065 64.1843C98.6888 64.1843 97.7959 63.2264 97.7959 61.9519C97.7959 60.6774 98.6888 59.7195 99.9065 59.7195C101.124 59.7195 102.017 60.6774 102.017 61.9519C102.017 63.2264 101.124 64.1843 99.9065 64.1843ZM99.9065 63.4618C100.613 63.4618 101.173 62.8936 101.173 61.9519C101.173 61.0102 100.613 60.4501 99.9065 60.4501C99.2003 60.4501 98.6482 61.0102 98.6482 61.9519C98.6482 62.8936 99.2003 63.4618 99.9065 63.4618ZM103.681 64.1031H102.853V58.2745H103.681V64.1031ZM108.391 59.8007L106.775 64.1031H105.882L104.267 59.8007H105.152L106.345 63.1615L107.555 59.8007H108.391ZM110.608 64.1843C109.366 64.1843 108.53 63.2832 108.53 61.9276C108.53 60.6531 109.398 59.7195 110.584 59.7195C111.866 59.7195 112.719 60.7586 112.573 62.1549H109.366C109.431 63.0316 109.869 63.543 110.592 63.543C111.201 63.543 111.623 63.2102 111.761 62.6501H112.573C112.361 63.608 111.623 64.1843 110.608 64.1843ZM110.567 60.3365C109.91 60.3365 109.463 60.8073 109.374 61.611H111.704C111.663 60.8154 111.233 60.3365 110.567 60.3365ZM113.056 61.9519C113.056 60.6449 113.803 59.7195 114.964 59.7195C115.541 59.7195 116.044 60.0117 116.344 60.5394V58.2745H117.164V64.1031H116.401V63.332C116.093 63.8758 115.573 64.1843 114.964 64.1843C113.803 64.1843 113.056 63.2427 113.056 61.9519ZM113.909 61.9519C113.909 62.9098 114.412 63.4537 115.127 63.4537C115.825 63.4537 116.344 62.8855 116.344 61.9357C116.344 60.9697 115.808 60.442 115.127 60.442C114.412 60.442 113.909 60.9778 113.909 61.9519Z" fill="#0F193E"/>
<rect x="197" y="186" width="206" height="228" rx="20" fill="#858BEC" fill-opacity="0.1"/>
<g filter="url(#filter2_d_625_5828)">
<rect x="206" y="196" width="188" height="208" rx="10" fill="white"/>
</g>
<path d="M285.75 228.878C285.75 230.796 284.21 232.14 281.69 232.14C279.156 232.14 277.574 230.782 277.42 228.654H279.576C279.632 229.76 280.346 230.474 281.648 230.474C282.726 230.474 283.496 229.998 283.496 229.186C283.496 228.556 283.006 228.178 282.152 228.01L280.5 227.688C278.974 227.394 277.798 226.568 277.798 224.902C277.798 223.11 279.38 221.822 281.55 221.822C283.804 221.822 285.456 223.138 285.596 225.238H283.44C283.37 224.188 282.642 223.474 281.578 223.474C280.542 223.474 279.954 224.062 279.954 224.762C279.954 225.448 280.584 225.742 281.312 225.882L283.034 226.232C284.798 226.582 285.75 227.394 285.75 228.878ZM291.633 228.85V224.524H293.565V232H291.787V231.02C291.381 231.678 290.555 232.14 289.603 232.14C288.105 232.14 287.013 231.23 287.013 229.284V224.524H288.959V228.906C288.959 229.956 289.477 230.418 290.261 230.418C290.961 230.418 291.633 229.858 291.633 228.85ZM297.259 228.374V232H295.313V224.524H297.105V225.966C297.651 225.014 298.813 224.44 300.017 224.44V226.456C298.365 226.33 297.259 226.722 297.259 228.374ZM307.899 224.524L305.155 232H303.027L300.269 224.524H302.369L304.147 229.788L305.939 224.524H307.899ZM311.741 232.126C309.501 232.126 308.003 230.572 308.003 228.234C308.003 226.008 309.557 224.384 311.713 224.384C314.079 224.384 315.647 226.302 315.297 228.738H309.991C310.117 229.956 310.705 230.628 311.699 230.628C312.553 230.628 313.127 230.208 313.351 229.466H315.283C314.863 231.16 313.561 232.126 311.741 232.126ZM311.671 225.812C310.761 225.812 310.187 226.4 310.019 227.506H313.239C313.183 226.47 312.595 225.812 311.671 225.812ZM323.075 224.524L319.435 234.702H317.321L318.385 231.916L315.445 224.524H317.545L319.421 229.648L321.129 224.524H323.075Z" fill="#858BEC"/>
<rect x="226" y="248" width="14" height="14" rx="7" fill="#0F193E" fill-opacity="0.2"/>
<path d="M236.329 253.666L235.51 252.835L232.122 256.16L230.492 254.581L229.68 255.419L231.303 256.992C231.531 257.22 231.83 257.333 232.129 257.333C232.427 257.333 232.724 257.221 232.949 256.995L236.329 253.666Z" fill="white"/>
<rect x="246" y="253" width="131" height="4" rx="2" fill="#0F193E" fill-opacity="0.1"/>
<rect x="218" y="208" width="5" height="5" rx="2.5" fill="#858BEC" fill-opacity="0.8"/>
<rect x="225" y="208" width="5" height="5" rx="2.5" fill="#858BEC" fill-opacity="0.8"/>
<rect x="232" y="208" width="5" height="5" rx="2.5" fill="#858BEC" fill-opacity="0.8"/>
<g clip-path="url(#clip2_625_5828)">
<rect x="226" y="276" width="14" height="14" rx="7" fill="#2DE740"/>
<path d="M240 283C240 286.86 236.86 290 233 290C229.14 290 226 286.86 226 283C226 279.14 229.14 276 233 276C236.86 276 240 279.14 240 283ZM238.833 283C238.833 279.784 236.216 277.167 233 277.167C229.784 277.167 227.167 279.784 227.167 283C227.167 286.216 229.784 288.833 233 288.833C236.216 288.833 238.833 286.216 238.833 283Z" fill="#2DE740"/>
<path d="M236.329 281.666L235.51 280.835L232.122 284.16L230.492 282.581L229.68 283.419L231.303 284.992C231.531 285.22 231.83 285.333 232.129 285.333C232.427 285.333 232.724 285.221 232.949 284.995L236.329 281.666Z" fill="white"/>
</g>
<rect x="246" y="281" width="131" height="4" rx="2" fill="#0F193E" fill-opacity="0.1"/>
<rect x="226" y="304" width="14" height="14" rx="7" fill="#0F193E" fill-opacity="0.2"/>
<path d="M236.329 309.666L235.51 308.835L232.122 312.16L230.492 310.581L229.68 311.419L231.303 312.992C231.531 313.22 231.83 313.333 232.129 313.333C232.427 313.333 232.724 313.221 232.949 312.995L236.329 309.666Z" fill="white"/>
<rect x="246" y="309" width="131" height="4" rx="2" fill="#0F193E" fill-opacity="0.1"/>
<rect x="226" y="332" width="14" height="14" rx="7" fill="#0F193E" fill-opacity="0.2"/>
<path d="M236.329 337.666L235.51 336.835L232.122 340.16L230.492 338.581L229.68 339.419L231.303 340.992C231.531 341.22 231.83 341.333 232.129 341.333C232.427 341.333 232.724 341.221 232.949 340.995L236.329 337.666Z" fill="white"/>
<rect x="246" y="337" width="131" height="4" rx="2" fill="#0F193E" fill-opacity="0.1"/>
<rect x="226" y="360" width="14" height="14" rx="7" fill="#0F193E" fill-opacity="0.2"/>
<path d="M236.329 365.666L235.51 364.835L232.122 368.16L230.492 366.581L229.68 367.419L231.303 368.992C231.531 369.22 231.83 369.333 232.129 369.333C232.427 369.333 232.724 369.221 232.949 368.995L236.329 365.666Z" fill="white"/>
<rect x="246" y="365" width="131" height="4" rx="2" fill="#0F193E" fill-opacity="0.1"/>
<g clip-path="url(#clip3_625_5828)">
<path d="M185.005 214.562H122.063C116.574 214.562 112.125 219.016 112.125 224.5V238.999C112.125 244.489 116.574 248.938 122.063 248.938H158.403C160.051 252.498 163.134 255.359 166.618 257.245C169.469 258.784 172.574 259.759 175.738 260.496C176.979 260.784 177.911 259.375 177.131 258.361C175.018 255.614 173.565 252.346 172.904 248.938H185C190.489 248.938 194.938 244.489 194.938 238.999V224.5C194.938 219.011 190.489 214.562 185 214.562H185.005Z" fill="white"/>
<g clip-path="url(#clip4_625_5828)">
<rect x="119.5" y="224" width="13.2835" height="13.2835" rx="6.64177" fill="#2DE740"/>
<path d="M132.784 230.642C132.784 234.304 129.804 237.284 126.142 237.284C122.479 237.284 119.5 234.304 119.5 230.642C119.5 226.979 122.479 224 126.142 224C129.804 224 132.784 226.979 132.784 230.642ZM131.677 230.642C131.677 227.59 129.194 225.107 126.142 225.107C123.09 225.107 120.607 227.59 120.607 230.642C120.607 233.694 123.09 236.177 126.142 236.177C129.194 236.177 131.677 233.694 131.677 230.642Z" fill="#2DE740"/>
<path d="M129.305 229.376L128.528 228.588L125.313 231.743L123.767 230.245L122.996 231.04L124.536 232.532C124.752 232.748 125.037 232.856 125.32 232.856C125.602 232.856 125.884 232.749 126.098 232.535L129.305 229.376Z" fill="white"/>
</g>
<path d="M181.203 224.683H137.673C136.921 224.683 136.312 225.292 136.312 226.043C136.312 226.794 136.921 227.403 137.673 227.403H181.203C181.955 227.403 182.564 226.794 182.564 226.043C182.564 225.292 181.955 224.683 181.203 224.683Z" fill="#0F193E" fill-opacity="0.1"/>
<path d="M181.203 231.18H137.673C136.921 231.18 136.312 231.789 136.312 232.54C136.312 233.292 136.921 233.901 137.673 233.901H181.203C181.955 233.901 182.564 233.292 182.564 232.54C182.564 231.789 181.955 231.18 181.203 231.18Z" fill="#0F193E" fill-opacity="0.1"/>
<path d="M153.615 237.672H137.673C136.921 237.672 136.312 238.281 136.312 239.032C136.312 239.783 136.921 240.392 137.673 240.392H153.615C154.367 240.392 154.975 239.783 154.975 239.032C154.975 238.281 154.367 237.672 153.615 237.672Z" fill="#0F193E" fill-opacity="0.1"/>
</g>
<path d="M137.976 555.274L163.473 548.815C169.307 547.337 173.404 542.1 173.434 536.082V536.082C173.462 530.362 169.805 525.275 164.374 523.48L149.134 518.443C113.527 506.275 59.9609 488.734 43.5985 468.837C25.1219 446.369 46.5915 418.552 106.021 421.896" stroke="white" stroke-opacity="0.2" stroke-width="1.21938" stroke-dasharray="5.49 5.49"/>
<path d="M117.471 422.025L105.885 423.452L106.107 420.068L117.471 422.025Z" fill="#858BEC" fill-opacity="0.4"/>
<path d="M117.605 422.122L104.147 428.584L105.071 423.217L117.605 422.122Z" fill="white" fill-opacity="0.8"/>
<path d="M117.478 422.028L104.263 415.074L104.993 420.471L117.478 422.028Z" fill="white" fill-opacity="0.8"/>
<g clip-path="url(#clip5_625_5828)">
<path d="M89.0809 474.481L57.2013 499.98L57.1775 504.761L90.6641 504.928L124.151 505.094L124.174 500.313L92.5502 474.498C91.5424 473.676 90.0968 473.668 89.0809 474.481Z" fill="#858BEC"/>
<path d="M118.742 531.585L62.8082 531.307C61.284 531.299 60.0544 530.058 60.062 528.533L60.3222 476.253C60.3298 474.729 61.5715 473.499 63.0958 473.507L119.029 473.785C120.554 473.793 121.783 475.034 121.776 476.559L121.515 528.839C121.508 530.364 120.266 531.593 118.742 531.585Z" fill="white"/>
<path d="M111.378 481.21L70.3167 481.005C69.7578 481.002 69.3024 481.453 69.2997 482.012C69.2969 482.571 69.7477 483.026 70.3066 483.029L111.368 483.234C111.927 483.236 112.383 482.785 112.385 482.227C112.388 481.668 111.937 481.212 111.378 481.21Z" fill="#0F193E" fill-opacity="0.4"/>
<path d="M111.343 488.111L70.2815 487.907C69.7226 487.904 69.2673 488.355 69.2645 488.914C69.2617 489.473 69.7125 489.928 70.2715 489.931L111.333 490.135C111.892 490.138 112.347 489.687 112.35 489.128C112.353 488.569 111.902 488.114 111.343 488.111Z" fill="#0F193E" fill-opacity="0.4"/>
<path d="M111.312 495.012L70.2503 494.808C69.6914 494.805 69.236 495.256 69.2332 495.815C69.2305 496.374 69.6813 496.829 70.2402 496.832L111.302 497.036C111.861 497.039 112.316 496.588 112.319 496.03C112.322 495.471 111.871 495.015 111.312 495.012Z" fill="#0F193E" fill-opacity="0.4"/>
<path d="M111.277 501.914L70.2151 501.71C69.6562 501.707 69.2009 502.158 69.1981 502.717C69.1953 503.276 69.6461 503.731 70.2051 503.734L111.267 503.938C111.826 503.941 112.281 503.49 112.284 502.931C112.287 502.372 111.836 501.917 111.277 501.914Z" fill="#0F193E" fill-opacity="0.4"/>
<path d="M124.172 500.374L123.984 538.116C123.977 539.64 122.734 540.87 121.211 540.863L59.7575 540.557C58.234 540.549 57.0038 539.307 57.0114 537.783L57.1992 500.041L90.921 526.912L124.172 500.374Z" fill="#858BEC"/>
<path d="M123.838 539.494L92.9485 514.334C91.9416 513.514 90.4989 513.507 89.4839 514.317L57.8706 539.547C58.374 540.16 59.1356 540.552 59.9902 540.557L121.443 540.863C122.465 540.868 123.357 540.316 123.838 539.494Z" fill="#858BEC"/>
</g>
<g clip-path="url(#clip6_625_5828)">
<path d="M392.082 383.353L403.508 399.684C404.758 401.47 407.427 401.432 408.62 399.6L419.68 382.611L392.091 383.353H392.082Z" fill="#858BEC"/>
<path d="M390.862 356H419.165C425.16 356 430.027 360.867 430.027 366.862V381.521C430.027 387.516 425.16 392.383 419.165 392.383H390.862C384.867 392.383 380 387.516 380 381.521V366.862C380 360.867 384.867 356 390.862 356Z" fill="#858BEC"/>
<path d="M414.813 370.847C413.206 367.915 410.547 367.464 408.762 368.131C406.817 368.855 405.811 370.847 405.811 370.847C405.811 370.847 404.806 368.855 402.861 368.131C401.075 367.464 398.416 367.915 396.809 370.847C393.464 376.964 405.811 384.932 405.811 384.932C405.811 384.932 418.158 376.964 414.813 370.847Z" fill="white"/>
</g>
<g filter="url(#filter3_d_625_5828)">
<rect x="400" y="34" width="164.6" height="50.9072" rx="11.4433" fill="white"/>
</g>
<rect x="413.578" y="48.0099" width="22.8868" height="22.8868" rx="11.4434" fill="#858BEC"/>
<g clip-path="url(#clip7_625_5828)">
<path d="M431.71 62.8042L430.963 60.6302C431.323 59.8941 431.513 59.0755 431.515 58.2518C431.517 56.8196 430.963 55.4654 429.954 54.4387C428.946 53.4119 427.602 52.8338 426.17 52.8111C424.685 52.7877 423.289 53.3524 422.24 54.4016C421.229 55.4133 420.667 56.747 420.65 58.1723C419.653 58.923 419.064 60.0935 419.066 61.3438C419.067 61.9288 419.199 62.5104 419.448 63.0363L418.933 64.5337C418.845 64.7911 418.91 65.0706 419.102 65.2631C419.238 65.3985 419.416 65.4707 419.6 65.4707C419.677 65.4707 419.755 65.4579 419.832 65.4317L421.329 64.9171C421.855 65.1667 422.436 65.2983 423.021 65.2993C423.024 65.2993 423.026 65.2993 423.028 65.2993C424.297 65.2992 425.476 64.6955 426.224 63.6739C427.002 63.6534 427.773 63.465 428.469 63.1244L430.643 63.8714C430.733 63.9025 430.826 63.9177 430.918 63.9177C431.136 63.9177 431.349 63.832 431.51 63.671C431.738 63.4423 431.815 63.1101 431.71 62.8042ZM423.028 64.5337C423.026 64.5337 423.024 64.5337 423.023 64.5337C422.505 64.5329 421.991 64.4053 421.536 64.1646C421.442 64.1151 421.332 64.1065 421.232 64.1409L419.697 64.6685L420.224 63.1331C420.259 63.033 420.25 62.9232 420.201 62.8297C419.96 62.3747 419.832 61.8605 419.832 61.3426C419.83 60.5096 420.154 59.7201 420.721 59.1289C420.906 60.2572 421.444 61.297 422.277 62.1157C423.105 62.9284 424.145 63.4458 425.267 63.615C424.674 64.199 423.876 64.5337 423.028 64.5337ZM430.968 63.1296C430.946 63.1514 430.921 63.1573 430.892 63.1473L428.564 62.3476C428.524 62.3337 428.482 62.3268 428.44 62.3268C428.378 62.3268 428.317 62.3418 428.261 62.3713C427.596 62.7228 426.845 62.9093 426.089 62.9104C426.087 62.9104 426.084 62.9104 426.082 62.9104C423.548 62.9104 421.455 60.8522 421.415 58.319C421.395 57.0433 421.88 55.8443 422.782 54.9429C423.683 54.0416 424.882 53.5565 426.158 53.5766C428.693 53.6168 430.753 55.7135 430.749 58.2506C430.748 59.0068 430.561 59.7577 430.21 60.4222C430.16 60.5157 430.152 60.6255 430.186 60.7256L430.986 63.053C430.996 63.0821 430.99 63.1079 430.968 63.1296Z" fill="white"/>
<path d="M428.358 56.2145H423.797C423.585 56.2145 423.414 56.3859 423.414 56.5973C423.414 56.8087 423.585 56.9801 423.797 56.9801H428.358C428.569 56.9801 428.741 56.8087 428.741 56.5973C428.741 56.3859 428.569 56.2145 428.358 56.2145Z" fill="white"/>
<path d="M428.358 57.7891H423.797C423.585 57.7891 423.414 57.9605 423.414 58.1719C423.414 58.3832 423.585 58.5546 423.797 58.5546H428.358C428.569 58.5546 428.741 58.3832 428.741 58.1719C428.741 57.9605 428.569 57.7891 428.358 57.7891Z" fill="white"/>
<path d="M426.602 59.3624H423.797C423.585 59.3624 423.414 59.5338 423.414 59.7452C423.414 59.9566 423.585 60.128 423.797 60.128H426.602C426.814 60.128 426.985 59.9566 426.985 59.7452C426.985 59.5338 426.814 59.3624 426.602 59.3624Z" fill="white"/>
</g>
<rect x="444.949" y="42.4843" width="102.663" height="3.39381" rx="1.69691" fill="#858BEC" fill-opacity="0.4"/>
<rect x="444.949" y="52.6656" width="102.663" height="3.39381" rx="1.69691" fill="#858BEC" fill-opacity="0.4"/>
<rect x="444.949" y="62.847" width="102.663" height="3.39381" rx="1.69691" fill="#858BEC" fill-opacity="0.4"/>
<rect x="444.949" y="73.0284" width="56.8464" height="3.39381" rx="1.69691" fill="#858BEC" fill-opacity="0.4"/>
</g>
<defs>
<filter id="filter0_f_625_5828" x="-331" y="-372" width="987" height="987" filterUnits="userSpaceOnUse" color-interpolation-filters="sRGB">
<feFlood flood-opacity="0" result="BackgroundImageFix"/>
<feBlend mode="normal" in="SourceGraphic" in2="BackgroundImageFix" result="shape"/>
<feGaussianBlur stdDeviation="150" result="effect1_foregroundBlur_625_5828"/>
</filter>
<filter id="filter1_f_625_5828" x="-119" y="128" width="1219" height="1219" filterUnits="userSpaceOnUse" color-interpolation-filters="sRGB">
<feFlood flood-opacity="0" result="BackgroundImageFix"/>
<feBlend mode="normal" in="SourceGraphic" in2="BackgroundImageFix" result="shape"/>
<feGaussianBlur stdDeviation="150" result="effect1_foregroundBlur_625_5828"/>
</filter>
<filter id="filter2_d_625_5828" x="162" y="156" width="276" height="296" filterUnits="userSpaceOnUse" color-interpolation-filters="sRGB">
<feFlood flood-opacity="0" result="BackgroundImageFix"/>
<feColorMatrix in="SourceAlpha" type="matrix" values="0 0 0 0 0 0 0 0 0 0 0 0 0 0 0 0 0 0 127 0" result="hardAlpha"/>
<feOffset dy="4"/>
<feGaussianBlur stdDeviation="22"/>
<feComposite in2="hardAlpha" operator="out"/>
<feColorMatrix type="matrix" values="0 0 0 0 0.521569 0 0 0 0 0.545098 0 0 0 0 0.92549 0 0 0 0.2 0"/>
<feBlend mode="normal" in2="BackgroundImageFix" result="effect1_dropShadow_625_5828"/>
<feBlend mode="normal" in="SourceGraphic" in2="effect1_dropShadow_625_5828" result="shape"/>
</filter>
<filter id="filter3_d_625_5828" x="334.047" y="-31.953" width="296.508" height="182.813" filterUnits="userSpaceOnUse" color-interpolation-filters="sRGB">
<feFlood flood-opacity="0" result="BackgroundImageFix"/>
<feColorMatrix in="SourceAlpha" type="matrix" values="0 0 0 0 0 0 0 0 0 0 0 0 0 0 0 0 0 0 127 0" result="hardAlpha"/>
<feOffset/>
<feGaussianBlur stdDeviation="32.9765"/>
<feComposite in2="hardAlpha" operator="out"/>
<feColorMatrix type="matrix" values="0 0 0 0 0.0588235 0 0 0 0 0.0980392 0 0 0 0 0.243137 0 0 0 0.02 0"/>
<feBlend mode="normal" in2="BackgroundImageFix" result="effect1_dropShadow_625_5828"/>
<feBlend mode="normal" in="SourceGraphic" in2="effect1_dropShadow_625_5828" result="shape"/>
</filter>
<clipPath id="clip0_625_5828">
<rect width="600" height="600" rx="50" fill="white"/>
</clipPath>
<clipPath id="clip1_625_5828">
<rect width="13.3494" height="11.6807" fill="white" transform="translate(66.1328 55.7628)"/>
</clipPath>
<clipPath id="clip2_625_5828">
<rect x="226" y="276" width="14" height="14" rx="7" fill="white"/>
</clipPath>
<clipPath id="clip3_625_5828">
<rect width="83" height="47" fill="white" transform="translate(112 214)"/>
</clipPath>
<clipPath id="clip4_625_5828">
<rect x="119.5" y="224" width="13.2835" height="13.2835" rx="6.64177" fill="white"/>
</clipPath>
<clipPath id="clip5_625_5828">
<rect width="67.0659" height="67.0659" fill="white" transform="translate(57.2891 473.478) rotate(0.285146)"/>
</clipPath>
<clipPath id="clip6_625_5828">
<rect width="50.0365" height="45" fill="white" transform="translate(380 356)"/>
</clipPath>
<clipPath id="clip7_625_5828">
<rect width="12.8617" height="12.8617" fill="white" transform="translate(418.898 52.7096)"/>
</clipPath>
</defs>
</svg>
