<svg width="600" height="600" viewBox="0 0 600 600" fill="none" xmlns="http://www.w3.org/2000/svg">
<g clipPath="url(#clip0_625_5957)">
<rect width="600" height="600" rx="50" fill="#0F193E"/>
<g opacity="0.2" filter="url(#filter0_f_625_5957)">
<circle cx="556.5" cy="121.5" r="193.5" fill="#466FFF"/>
</g>
<g opacity="0.25" filter="url(#filter1_f_625_5957)">
<circle cx="99.5" cy="737.5" r="309.5" fill="#466FFF"/>
</g>
<g opacity="0.1">
<path d="M483.771 686.689L441.389 520.757H190.18L147.798 686.689H-4.77734L210.985 -81.8369H420.583L636.345 686.689H483.771ZM402.86 372.292L341.984 133.219C333.251 97.5585 328.884 68.0838 328.884 44.7952C328.884 31.6953 324.517 25.1454 315.784 25.1454C307.565 25.1454 303.455 31.6953 303.455 44.7952C303.455 58.6228 302.171 72.0865 299.602 85.1864C297.547 98.2862 294.208 114.297 289.584 133.219L228.709 372.292H402.86Z" fill="black"/>
</g>
<g filter="url(#filter2_d_625_5957)">
<rect x="101" y="428.266" width="131.792" height="35.6193" rx="9.49849" fill="white" fill-opacity="0.8" shape-rendering="crispEdges"/>
</g>
<rect x="110.5" y="437.764" width="113.41" height="2.37462" rx="1.18731" fill="#0F193E" fill-opacity="0.1"/>
<rect x="110.5" y="444.888" width="113.41" height="2.37462" rx="1.18731" fill="#0F193E" fill-opacity="0.1"/>
<rect x="110.5" y="452.012" width="62.7975" height="2.37462" rx="1.18731" fill="#0F193E" fill-opacity="0.1"/>
<g filter="url(#filter3_d_625_5957)">
<path d="M162.201 212.175H439.925C442.903 212.175 445.317 214.494 445.317 217.355V383.905C445.317 386.766 442.903 389.085 439.925 389.085H162.201C159.224 389.085 156.801 386.766 156.801 383.897V217.363C156.801 214.502 159.215 212.175 162.201 212.175Z" fill="white"/>
</g>
<path d="M170.309 278.665C170.309 287.845 177.751 295.287 186.931 295.287C196.111 295.287 203.553 287.845 203.553 278.665C203.553 269.485 196.111 262.042 186.931 262.042C177.751 262.042 170.309 269.485 170.309 278.665Z" fill="#858BEC" fill-opacity="0.2"/>
<path d="M192.867 275.971L191.361 274.442L185.128 280.559L182.131 277.654L180.637 279.196L183.622 282.089C184.041 282.508 184.593 282.717 185.141 282.717C185.69 282.717 186.236 282.51 186.651 282.095L192.867 275.971Z" fill="white"/>
<path d="M207.117 278.665C207.117 287.845 214.559 295.287 223.74 295.287C232.92 295.287 240.362 287.845 240.362 278.665C240.362 269.485 232.92 262.042 223.74 262.042C214.559 262.042 207.117 269.485 207.117 278.665Z" fill="#858BEC" fill-opacity="0.2"/>
<path d="M243.922 278.665C243.922 287.845 251.364 295.287 260.544 295.287C269.725 295.287 277.167 287.845 277.167 278.665C277.167 269.485 269.725 262.042 260.544 262.042C251.364 262.042 243.922 269.485 243.922 278.665Z" fill="#858BEC" fill-opacity="0.2"/>
<path d="M266.48 275.971L264.974 274.442L258.742 280.559L255.745 277.654L254.25 279.196L257.235 282.089C257.655 282.508 258.206 282.717 258.755 282.717C259.303 282.717 259.849 282.51 260.264 282.095L266.48 275.971Z" fill="white"/>
<path d="M280.73 278.665C280.73 287.845 288.173 295.287 297.353 295.287C306.533 295.287 313.975 287.845 313.975 278.665C313.975 269.485 306.533 262.042 297.353 262.042C288.173 262.042 280.73 269.485 280.73 278.665Z" fill="#858BEC" fill-opacity="0.2"/>
<path d="M317.535 278.665C317.535 287.845 324.977 295.287 334.158 295.287C343.338 295.287 350.78 287.845 350.78 278.665C350.78 269.485 343.338 262.042 334.158 262.042C324.977 262.042 317.535 269.485 317.535 278.665Z" fill="#858BEC" fill-opacity="0.2"/>
<path d="M354.344 278.665C354.344 287.845 361.786 295.287 370.966 295.287C380.146 295.287 387.588 287.845 387.588 278.665C387.588 269.485 380.146 262.042 370.966 262.042C361.786 262.042 354.344 269.485 354.344 278.665Z" fill="#858BEC" fill-opacity="0.2"/>
<path d="M376.902 275.971L375.396 274.442L369.164 280.559L366.167 277.654L364.672 279.196L367.657 282.089C368.077 282.508 368.628 282.717 369.176 282.717C369.725 282.717 370.271 282.51 370.686 282.095L376.902 275.971Z" fill="white"/>
<path d="M391.148 278.665C391.148 287.845 398.591 295.287 407.771 295.287C416.951 295.287 424.393 287.845 424.393 278.665C424.393 269.485 416.951 262.042 407.771 262.042C398.591 262.042 391.148 269.485 391.148 278.665Z" fill="#858BEC" fill-opacity="0.2"/>
<path d="M413.707 275.971L412.201 274.442L405.968 280.559L402.971 277.654L401.477 279.196L404.462 282.089C404.881 282.508 405.433 282.717 405.981 282.717C406.53 282.717 407.076 282.51 407.491 282.095L413.707 275.971Z" fill="white"/>
<path d="M170.309 319.773C170.309 330.672 179.145 339.508 190.045 339.508C200.944 339.508 209.78 330.672 209.78 319.773C209.78 308.873 200.944 300.037 190.045 300.037C179.145 300.037 170.309 308.873 170.309 319.773Z" fill="#858BEC" fill-opacity="0.2"/>
<path d="M197.092 316.574L195.303 314.758L187.903 322.022L184.345 318.573L182.57 320.404L186.115 323.838C186.613 324.335 187.268 324.584 187.919 324.584C188.57 324.584 189.218 324.338 189.711 323.845L197.092 316.574Z" fill="white"/>
<path d="M213.344 316.659C213.344 325.839 220.786 333.281 229.966 333.281C239.146 333.281 246.588 325.839 246.588 316.659C246.588 307.479 239.146 300.037 229.966 300.037C220.786 300.037 213.344 307.479 213.344 316.659Z" fill="#858BEC" fill-opacity="0.2"/>
<path d="M250.148 316.659C250.148 325.839 257.591 333.281 266.771 333.281C275.951 333.281 283.393 325.839 283.393 316.659C283.393 307.479 275.951 300.037 266.771 300.037C257.591 300.037 250.148 307.479 250.148 316.659Z" fill="#858BEC" fill-opacity="0.2"/>
<path d="M272.707 313.965L271.201 312.436L264.968 318.553L261.971 315.648L260.477 317.19L263.462 320.083C263.881 320.502 264.433 320.711 264.981 320.711C265.53 320.711 266.076 320.504 266.491 320.089L272.707 313.965Z" fill="white"/>
<path d="M286.957 316.659C286.957 325.839 294.399 333.281 303.579 333.281C312.76 333.281 320.202 325.839 320.202 316.659C320.202 307.479 312.76 300.037 303.579 300.037C294.399 300.037 286.957 307.479 286.957 316.659Z" fill="#858BEC" fill-opacity="0.2"/>
<path d="M323.762 316.659C323.762 325.839 331.204 333.281 340.384 333.281C349.564 333.281 357.006 325.839 357.006 316.659C357.006 307.479 349.564 300.037 340.384 300.037C331.204 300.037 323.762 307.479 323.762 316.659Z" fill="#858BEC" fill-opacity="0.2"/>
<path d="M346.32 313.965L344.814 312.436L338.582 318.553L335.585 315.648L334.09 317.19L337.075 320.083C337.495 320.502 338.046 320.711 338.594 320.711C339.143 320.711 339.689 320.504 340.104 320.089L346.32 313.965Z" fill="white"/>
<path d="M360.57 316.659C360.57 325.839 368.012 333.281 377.193 333.281C386.373 333.281 393.815 325.839 393.815 316.659C393.815 307.479 386.373 300.037 377.193 300.037C368.012 300.037 360.57 307.479 360.57 316.659Z" fill="#858BEC" fill-opacity="0.2"/>
<path d="M383.129 313.965L381.622 312.436L375.39 318.553L372.393 315.648L370.898 317.19L373.884 320.083C374.303 320.502 374.855 320.711 375.403 320.711C375.951 320.711 376.498 320.504 376.913 320.089L383.129 313.965Z" fill="white"/>
<path d="M397.375 316.659C397.375 325.839 404.817 333.281 413.997 333.281C423.178 333.281 430.62 325.839 430.62 316.659C430.62 307.479 423.178 300.037 413.997 300.037C404.817 300.037 397.375 307.479 397.375 316.659Z" fill="#858BEC" fill-opacity="0.2"/>
<path d="M170.309 363.993C170.309 374.893 179.145 383.729 190.045 383.729C200.944 383.729 209.78 374.893 209.78 363.993C209.78 353.094 200.944 344.258 190.045 344.258C179.145 344.258 170.309 353.094 170.309 363.993Z" fill="#858BEC" fill-opacity="0.2"/>
<path d="M197.092 360.795L195.303 358.979L187.903 366.242L184.345 362.794L182.57 364.624L186.115 368.059C186.613 368.556 187.268 368.805 187.919 368.805C188.57 368.805 189.218 368.559 189.711 368.066L197.092 360.795Z" fill="white"/>
<path d="M213.344 360.88C213.344 370.06 220.786 377.502 229.966 377.502C239.146 377.502 246.588 370.06 246.588 360.88C246.588 351.7 239.146 344.258 229.966 344.258C220.786 344.258 213.344 351.7 213.344 360.88Z" fill="#858BEC" fill-opacity="0.2"/>
<path d="M235.902 358.186L234.396 356.657L228.164 362.774L225.167 359.869L223.672 361.411L226.657 364.304C227.077 364.723 227.628 364.932 228.176 364.932C228.725 364.932 229.271 364.725 229.686 364.31L235.902 358.186Z" fill="white"/>
<path d="M250.148 360.88C250.148 370.06 257.591 377.502 266.771 377.502C275.951 377.502 283.393 370.06 283.393 360.88C283.393 351.7 275.951 344.258 266.771 344.258C257.591 344.258 250.148 351.7 250.148 360.88Z" fill="#858BEC" fill-opacity="0.2"/>
<path d="M286.957 360.88C286.957 370.06 294.399 377.502 303.579 377.502C312.76 377.502 320.202 370.06 320.202 360.88C320.202 351.7 312.76 344.258 303.579 344.258C294.399 344.258 286.957 351.7 286.957 360.88Z" fill="#858BEC" fill-opacity="0.2"/>
<path d="M309.516 358.186L308.009 356.657L301.777 362.774L298.78 359.869L297.285 361.411L300.27 364.304C300.69 364.723 301.241 364.932 301.79 364.932C302.338 364.932 302.884 364.725 303.3 364.31L309.516 358.186Z" fill="white"/>
<path d="M323.762 360.88C323.762 370.06 331.204 377.502 340.384 377.502C349.564 377.502 357.006 370.06 357.006 360.88C357.006 351.7 349.564 344.258 340.384 344.258C331.204 344.258 323.762 351.7 323.762 360.88Z" fill="#858BEC" fill-opacity="0.2"/>
<path d="M346.32 358.186L344.814 356.657L338.582 362.774L335.585 359.869L334.09 361.411L337.075 364.304C337.495 364.723 338.046 364.932 338.594 364.932C339.143 364.932 339.689 364.725 340.104 364.31L346.32 358.186Z" fill="white"/>
<path d="M360.57 360.88C360.57 370.06 368.012 377.502 377.193 377.502C386.373 377.502 393.815 370.06 393.815 360.88C393.815 351.7 386.373 344.258 377.193 344.258C368.012 344.258 360.57 351.7 360.57 360.88Z" fill="#858BEC" fill-opacity="0.2"/>
<path d="M383.129 358.186L381.622 356.657L375.39 362.774L372.393 359.869L370.898 361.411L373.884 364.304C374.303 364.723 374.855 364.932 375.403 364.932C375.951 364.932 376.498 364.725 376.913 364.31L383.129 358.186Z" fill="white"/>
<path d="M397.375 360.88C397.375 370.06 404.817 377.502 413.997 377.502C423.178 377.502 430.62 370.06 430.62 360.88C430.62 351.7 423.178 344.258 413.997 344.258C404.817 344.258 397.375 351.7 397.375 360.88Z" fill="#858BEC" fill-opacity="0.2"/>
<path d="M419.934 358.186L418.427 356.657L412.195 362.774L409.198 359.869L407.703 361.411L410.688 364.304C411.108 364.723 411.659 364.932 412.208 364.932C412.756 364.932 413.302 364.725 413.718 364.31L419.934 358.186Z" fill="white"/>
<path d="M206.412 244.48H177.054C176.071 244.48 175.273 245.278 175.273 246.261C175.273 247.245 176.071 248.042 177.054 248.042H206.412C207.395 248.042 208.193 247.245 208.193 246.261C208.193 245.278 207.395 244.48 206.412 244.48Z" fill="#858BEC" fill-opacity="0.2"/>
<path d="M243.013 244.48H213.656C212.672 244.48 211.875 245.278 211.875 246.261C211.875 247.245 212.672 248.042 213.656 248.042H243.013C243.997 248.042 244.794 247.245 244.794 246.261C244.794 245.278 243.997 244.48 243.013 244.48Z" fill="#858BEC" fill-opacity="0.2"/>
<path d="M279.607 244.48H250.25C249.266 244.48 248.469 245.278 248.469 246.261C248.469 247.245 249.266 248.042 250.25 248.042H279.607C280.591 248.042 281.388 247.245 281.388 246.261C281.388 245.278 280.591 244.48 279.607 244.48Z" fill="#858BEC" fill-opacity="0.2"/>
<path d="M316.201 244.48H286.843C285.86 244.48 285.062 245.278 285.062 246.261C285.062 247.245 285.86 248.042 286.843 248.042H316.201C317.184 248.042 317.982 247.245 317.982 246.261C317.982 245.278 317.184 244.48 316.201 244.48Z" fill="#858BEC" fill-opacity="0.2"/>
<path d="M425.986 244.48H396.629C395.645 244.48 394.848 245.278 394.848 246.261C394.848 247.245 395.645 248.042 396.629 248.042H425.986C426.97 248.042 427.767 247.245 427.767 246.261C427.767 245.278 426.97 244.48 425.986 244.48Z" fill="#858BEC" fill-opacity="0.2"/>
<path d="M352.795 244.48H323.437C322.454 244.48 321.656 245.278 321.656 246.261C321.656 247.245 322.454 248.042 323.437 248.042H352.795C353.778 248.042 354.576 247.245 354.576 246.261C354.576 245.278 353.778 244.48 352.795 244.48Z" fill="#858BEC" fill-opacity="0.2"/>
<path d="M389.388 244.48H360.031C359.047 244.48 358.25 245.278 358.25 246.261C358.25 247.245 359.047 248.042 360.031 248.042H389.388C390.372 248.042 391.169 247.245 391.169 246.261C391.169 245.278 390.372 244.48 389.388 244.48Z" fill="#858BEC" fill-opacity="0.2"/>
<path d="M445.317 217.539V232.36H156.801V217.539C156.801 214.581 159.215 212.175 162.193 212.175H439.917C442.895 212.175 445.309 214.573 445.309 217.539H445.317Z" fill="#0F193E" fill-opacity="0.1"/>
<path d="M176.12 218.652C176.12 220.081 174.969 221.232 173.54 221.232C172.112 221.232 170.961 220.081 170.961 218.652C170.961 217.224 172.112 216.073 173.54 216.073C174.969 216.073 176.12 217.224 176.12 218.652Z" fill="white"/>
<path d="M184.841 211.863C185.051 211.04 185.135 210.166 185.067 209.259C184.765 205.226 181.438 202.033 177.405 201.865C172.834 201.68 169.062 205.343 169.062 209.872C169.062 210.561 169.146 211.225 169.314 211.863C169.944 214.317 171.708 216.325 174.019 217.274C174.422 217.442 174.716 217.795 174.817 218.224C174.817 218.241 174.825 218.266 174.834 218.283C175.061 219.358 173.952 220.223 172.935 219.803C169.641 218.425 167.179 215.459 166.507 211.863C166.398 211.284 166.339 210.695 166.322 210.082C166.205 204.184 170.935 199.243 176.842 199.117C182.883 198.991 187.832 203.865 187.832 209.872C187.832 210.553 187.773 211.216 187.647 211.863H184.832H184.841Z" fill="white"/>
<path d="M201.065 218.652C201.065 220.081 199.914 221.232 198.486 221.232C197.057 221.232 195.906 220.081 195.906 218.652C195.906 217.224 197.057 216.073 198.486 216.073C199.914 216.073 201.065 217.224 201.065 218.652Z" fill="white"/>
<path d="M209.786 211.863C209.996 211.04 210.08 210.166 210.013 209.259C209.71 205.226 206.383 202.033 202.35 201.865C197.779 201.68 194.007 205.343 194.007 209.872C194.007 210.561 194.091 211.225 194.259 211.863C194.889 214.317 196.654 216.325 198.964 217.274C199.367 217.442 199.661 217.795 199.762 218.224C199.762 218.241 199.771 218.266 199.779 218.283C200.006 219.358 198.897 220.223 197.88 219.803C194.587 218.425 192.125 215.459 191.453 211.863C191.343 211.284 191.285 210.695 191.268 210.082C191.15 204.184 195.889 199.243 201.787 199.117C207.828 198.991 212.777 203.865 212.777 209.872C212.777 210.553 212.718 211.216 212.592 211.863H209.778H209.786Z" fill="white"/>
<path d="M226.007 218.652C226.007 220.081 224.855 221.232 223.427 221.232C221.999 221.232 220.848 220.081 220.848 218.652C220.848 217.224 221.999 216.073 223.427 216.073C224.855 216.073 226.007 217.224 226.007 218.652Z" fill="white"/>
<path d="M234.735 211.863C234.945 211.04 235.029 210.166 234.962 209.259C234.66 205.226 231.332 202.033 227.299 201.865C222.729 201.68 218.956 205.343 218.956 209.872C218.956 210.561 219.04 211.225 219.208 211.863C219.838 214.317 221.603 216.325 223.913 217.274C224.317 217.442 224.611 217.795 224.711 218.224C224.711 218.241 224.72 218.266 224.728 218.283C224.955 219.358 223.846 220.223 222.829 219.803C219.536 218.425 217.074 215.459 216.402 211.863C216.293 211.284 216.234 210.695 216.217 210.082C216.099 204.184 220.83 199.243 226.736 199.117C232.777 198.991 237.726 203.865 237.726 209.872C237.726 210.553 237.667 211.216 237.541 211.863H234.727H234.735Z" fill="white"/>
<path d="M250.967 218.652C250.967 220.081 249.816 221.232 248.388 221.232C246.96 221.232 245.809 220.081 245.809 218.652C245.809 217.224 246.96 216.073 248.388 216.073C249.816 216.073 250.967 217.224 250.967 218.652Z" fill="white"/>
<path d="M259.688 211.863C259.898 211.04 259.982 210.166 259.915 209.259C259.613 205.226 256.285 202.033 252.252 201.865C247.682 201.68 243.909 205.343 243.909 209.872C243.909 210.561 243.993 211.225 244.161 211.863C244.791 214.317 246.556 216.325 248.866 217.274C249.27 217.442 249.564 217.795 249.665 218.224C249.665 218.241 249.673 218.266 249.681 218.283C249.908 219.358 248.799 220.223 247.783 219.803C244.489 218.425 242.027 215.459 241.355 211.863C241.246 211.284 241.187 210.695 241.17 210.082C241.052 204.184 245.783 199.243 251.69 199.117C257.731 198.991 262.679 203.865 262.679 209.872C262.679 210.553 262.621 211.216 262.495 211.863H259.68H259.688Z" fill="white"/>
<path d="M275.909 218.652C275.909 220.081 274.758 221.232 273.329 221.232C271.901 221.232 270.75 220.081 270.75 218.652C270.75 217.224 271.901 216.073 273.329 216.073C274.758 216.073 275.909 217.224 275.909 218.652Z" fill="white"/>
<path d="M284.63 211.863C284.84 211.04 284.924 210.166 284.857 209.259C284.554 205.226 281.227 202.033 277.194 201.865C272.623 201.68 268.851 205.343 268.851 209.872C268.851 210.561 268.935 211.225 269.103 211.863C269.733 214.317 271.497 216.325 273.808 217.274C274.211 217.442 274.505 217.795 274.606 218.224C274.606 218.241 274.614 218.266 274.623 218.283C274.85 219.358 273.741 220.223 272.724 219.803C269.43 218.425 266.969 215.459 266.296 211.863C266.187 211.284 266.128 210.695 266.112 210.082C265.994 204.175 270.733 199.243 276.639 199.117C282.68 198.991 287.629 203.865 287.629 209.872C287.629 210.553 287.57 211.216 287.444 211.863H284.63Z" fill="white"/>
<path d="M300.858 218.652C300.858 220.081 299.707 221.232 298.279 221.232C296.85 221.232 295.699 220.081 295.699 218.652C295.699 217.224 296.85 216.073 298.279 216.073C299.707 216.073 300.858 217.224 300.858 218.652Z" fill="white"/>
<path d="M309.587 211.863C309.797 211.04 309.881 210.166 309.814 209.259C309.511 205.226 306.184 202.033 302.151 201.865C297.58 201.68 293.808 205.343 293.808 209.872C293.808 210.561 293.892 211.225 294.06 211.863C294.69 214.317 296.454 216.325 298.765 217.274C299.168 217.442 299.462 217.795 299.563 218.224C299.563 218.241 299.571 218.266 299.58 218.283C299.807 219.358 298.698 220.223 297.681 219.803C294.387 218.425 291.926 215.459 291.253 211.863C291.144 211.284 291.085 210.695 291.069 210.082C290.951 204.175 295.69 199.243 301.596 199.117C307.637 198.991 312.586 203.865 312.586 209.872C312.586 210.553 312.527 211.216 312.401 211.863H309.587Z" fill="white"/>
<path d="M325.811 218.652C325.811 220.081 324.66 221.232 323.232 221.232C321.803 221.232 320.652 220.081 320.652 218.652C320.652 217.224 321.803 216.073 323.232 216.073C324.66 216.073 325.811 217.224 325.811 218.652Z" fill="white"/>
<path d="M334.532 211.863C334.742 211.04 334.826 210.166 334.759 209.259C334.456 205.226 331.129 202.033 327.096 201.865C322.525 201.68 318.753 205.343 318.753 209.872C318.753 210.561 318.837 211.225 319.005 211.863C319.635 214.317 321.4 216.325 323.71 217.274C324.113 217.442 324.408 217.795 324.508 218.224C324.508 218.241 324.517 218.266 324.525 218.283C324.752 219.358 323.643 220.223 322.626 219.803C319.333 218.425 316.871 215.459 316.199 211.863C316.089 211.284 316.031 210.695 316.014 210.082C315.896 204.175 320.635 199.243 326.542 199.117C332.583 198.991 337.532 203.865 337.532 209.872C337.532 210.553 337.473 211.216 337.347 211.863H334.532Z" fill="white"/>
<path d="M350.76 218.652C350.76 220.081 349.609 221.232 348.181 221.232C346.753 221.232 345.602 220.081 345.602 218.652C345.602 217.224 346.753 216.073 348.181 216.073C349.609 216.073 350.76 217.224 350.76 218.652Z" fill="white"/>
<path d="M359.481 211.863C359.691 211.04 359.775 210.166 359.708 209.259C359.406 205.226 356.078 202.033 352.045 201.865C347.475 201.68 343.702 205.343 343.702 209.872C343.702 210.561 343.786 211.225 343.954 211.863C344.584 214.317 346.349 216.325 348.659 217.274C349.063 217.442 349.357 217.795 349.458 218.224C349.458 218.241 349.466 218.266 349.474 218.283C349.701 219.358 348.592 220.223 347.576 219.803C344.282 218.425 341.82 215.459 341.148 211.863C341.039 211.284 340.98 210.695 340.963 210.082C340.845 204.175 345.584 199.243 351.491 199.117C357.532 198.991 362.481 203.865 362.481 209.872C362.481 210.553 362.422 211.216 362.296 211.863H359.481Z" fill="white"/>
<path d="M375.706 218.652C375.706 220.08 374.555 221.231 373.126 221.231C371.698 221.231 370.547 220.08 370.547 218.652C370.547 217.224 371.698 216.073 373.126 216.073C374.555 216.073 375.706 217.224 375.706 218.652Z" fill="white"/>
<path d="M384.427 211.863C384.637 211.04 384.721 210.166 384.653 209.259C384.351 205.226 381.024 202.033 376.991 201.865C372.42 201.68 368.647 205.343 368.647 209.872C368.647 210.561 368.731 211.225 368.9 211.863C369.53 214.317 371.294 216.325 373.605 217.274C374.008 217.442 374.302 217.795 374.403 218.224C374.403 218.241 374.411 218.266 374.42 218.283C374.647 219.358 373.537 220.223 372.521 219.803C369.227 218.425 366.765 215.459 366.093 211.863C365.984 211.284 365.925 210.695 365.908 210.082C365.791 204.175 370.53 199.243 376.436 199.117C382.477 198.991 387.426 203.865 387.426 209.872C387.426 210.553 387.367 211.216 387.241 211.863H384.427Z" fill="white"/>
<path d="M400.651 218.652C400.651 220.081 399.5 221.232 398.072 221.232C396.643 221.232 395.492 220.081 395.492 218.652C395.492 217.224 396.643 216.073 398.072 216.073C399.5 216.073 400.651 217.224 400.651 218.652Z" fill="white"/>
<path d="M409.372 211.863C409.582 211.04 409.666 210.166 409.599 209.259C409.296 205.226 405.969 202.033 401.936 201.865C397.365 201.68 393.593 205.343 393.593 209.872C393.593 210.561 393.677 211.225 393.845 211.863C394.475 214.317 396.239 216.325 398.55 217.274C398.953 217.442 399.247 217.795 399.348 218.224C399.348 218.241 399.357 218.266 399.365 218.283C399.592 219.358 398.483 220.223 397.466 219.803C394.173 218.425 391.711 215.459 391.039 211.863C390.929 211.284 390.871 210.695 390.854 210.082C390.736 204.175 395.475 199.243 401.382 199.117C407.423 198.991 412.371 203.865 412.371 209.872C412.371 210.553 412.313 211.216 412.187 211.863H409.372Z" fill="white"/>
<path d="M425.604 218.652C425.604 220.081 424.453 221.232 423.025 221.232C421.596 221.232 420.445 220.081 420.445 218.652C420.445 217.224 421.596 216.073 423.025 216.073C424.453 216.073 425.604 217.224 425.604 218.652Z" fill="white"/>
<path d="M434.333 211.863C434.543 211.04 434.627 210.166 434.56 209.259C434.257 205.226 430.93 202.033 426.897 201.865C422.326 201.68 418.554 205.343 418.554 209.872C418.554 210.561 418.638 211.225 418.806 211.863C419.436 214.317 421.2 216.325 423.511 217.274C423.914 217.442 424.208 217.795 424.309 218.224C424.309 218.241 424.318 218.266 424.326 218.283C424.553 219.358 423.444 220.223 422.427 219.803C419.133 218.425 416.672 215.459 415.999 211.863C415.89 211.284 415.831 210.695 415.815 210.082C415.697 204.175 420.436 199.243 426.342 199.117C432.384 198.991 437.332 203.865 437.332 209.872C437.332 210.553 437.274 211.216 437.148 211.863H434.333Z" fill="white"/>
<g filter="url(#filter4_d_625_5957)">
<g clipPath="url(#clip1_625_5957)">
<rect x="141.367" y="324.97" width="29.6828" height="29.6828" rx="14.8414" fill="white"/>
<circle cx="156.213" cy="339.811" r="13.0604" stroke="#0F193E" stroke-width="1.18731"/>
<rect x="159.895" y="332.228" width="1.18731" height="7.42101" transform="rotate(29.7954 159.895 332.228)" fill="#0F193E"/>
<path d="M155.843 327.938C156.087 327.931 156.331 327.931 156.575 327.939L156.538 329.155C156.318 329.148 156.099 329.148 155.879 329.155L155.843 327.938Z" fill="#0F193E"/>
<path d="M164.553 331.245C164.73 331.413 164.903 331.585 165.07 331.763L164.184 332.597C164.033 332.437 163.878 332.282 163.718 332.131L164.553 331.245Z" fill="#0F193E"/>
<path d="M168.366 339.741C168.373 339.985 168.373 340.229 168.365 340.473L167.149 340.436C167.156 340.216 167.156 339.997 167.149 339.777L168.366 339.741Z" fill="#0F193E"/>
<path d="M164.768 348.152C164.6 348.329 164.428 348.502 164.25 348.669L163.416 347.783C163.576 347.632 163.731 347.477 163.882 347.317L164.768 348.152Z" fill="#0F193E"/>
<path d="M156.563 351.971C156.319 351.978 156.075 351.978 155.832 351.97L155.868 350.754C156.088 350.761 156.307 350.761 156.527 350.754L156.563 351.971Z" fill="#0F193E"/>
<path d="M148.158 348.664C147.981 348.496 147.808 348.324 147.641 348.146L148.527 347.312C148.678 347.472 148.833 347.627 148.993 347.778L148.158 348.664Z" fill="#0F193E"/>
<path d="M144.041 340.465C144.033 340.221 144.033 339.977 144.041 339.733L145.257 339.77C145.251 339.99 145.25 340.209 145.257 340.429L144.041 340.465Z" fill="#0F193E"/>
<path d="M147.35 331.757C147.517 331.58 147.689 331.407 147.867 331.24L148.701 332.126C148.541 332.277 148.386 332.432 148.235 332.592L147.35 331.757Z" fill="#0F193E"/>
<rect x="150.812" y="338.353" width="1.18731" height="4.48724" transform="rotate(-64.5597 150.812 338.353)" fill="#0F193E"/>
<circle cx="156.207" cy="339.806" r="1.78097" fill="#0F193E"/>
</g>
</g>
<circle cx="475.001" cy="234.734" r="18.997" fill="white"/>
<rect x="464.316" y="234.626" width="3.56193" height="8.31118" fill="url(#paint0_linear_625_5957)"/>
<rect x="470.254" y="226.423" width="3.88575" height="16.5144" fill="url(#paint1_linear_625_5957)"/>
<rect x="476.512" y="232.251" width="3.56193" height="10.6858" fill="url(#paint2_linear_625_5957)"/>
<rect x="482.449" y="226.423" width="3.88575" height="16.5144" fill="url(#paint3_linear_625_5957)"/>
</g>
<defs>
<filter id="filter0_f_625_5957" x="63" y="-372" width="987" height="987" filterUnits="userSpaceOnUse" color-interpolation-filters="sRGB">
<feFlood flood-opacity="0" result="BackgroundImageFix"/>
<feBlend mode="normal" in="SourceGraphic" in2="BackgroundImageFix" result="shape"/>
<feGaussianBlur stdDeviation="150" result="effect1_foregroundBlur_625_5957"/>
</filter>
<filter id="filter1_f_625_5957" x="-510" y="128" width="1219" height="1219" filterUnits="userSpaceOnUse" color-interpolation-filters="sRGB">
<feFlood flood-opacity="0" result="BackgroundImageFix"/>
<feBlend mode="normal" in="SourceGraphic" in2="BackgroundImageFix" result="shape"/>
<feGaussianBlur stdDeviation="150" result="effect1_foregroundBlur_625_5957"/>
</filter>
<filter id="filter2_d_625_5957" x="28.1422" y="355.408" width="277.509" height="181.335" filterUnits="userSpaceOnUse" color-interpolation-filters="sRGB">
<feFlood flood-opacity="0" result="BackgroundImageFix"/>
<feColorMatrix in="SourceAlpha" type="matrix" values="0 0 0 0 0 0 0 0 0 0 0 0 0 0 0 0 0 0 127 0" result="hardAlpha"/>
<feOffset/>
<feGaussianBlur stdDeviation="36.4289"/>
<feComposite in2="hardAlpha" operator="out"/>
<feColorMatrix type="matrix" values="0 0 0 0 0.0588235 0 0 0 0 0.0980392 0 0 0 0 0.243137 0 0 0 0.02 0"/>
<feBlend mode="normal" in2="BackgroundImageFix" result="effect1_dropShadow_625_5957"/>
<feBlend mode="normal" in="SourceGraphic" in2="effect1_dropShadow_625_5957" result="shape"/>
</filter>
<filter id="filter3_d_625_5957" x="109.308" y="164.683" width="383.501" height="271.894" filterUnits="userSpaceOnUse" color-interpolation-filters="sRGB">
<feFlood flood-opacity="0" result="BackgroundImageFix"/>
<feColorMatrix in="SourceAlpha" type="matrix" values="0 0 0 0 0 0 0 0 0 0 0 0 0 0 0 0 0 0 127 0" result="hardAlpha"/>
<feOffset/>
<feGaussianBlur stdDeviation="23.7462"/>
<feComposite in2="hardAlpha" operator="out"/>
<feColorMatrix type="matrix" values="0 0 0 0 0.0588235 0 0 0 0 0.0980392 0 0 0 0 0.243137 0 0 0 0.1 0"/>
<feBlend mode="normal" in2="BackgroundImageFix" result="effect1_dropShadow_625_5957"/>
<feBlend mode="normal" in="SourceGraphic" in2="effect1_dropShadow_625_5957" result="shape"/>
</filter>
<filter id="filter4_d_625_5957" x="130.979" y="317.549" width="50.4608" height="50.4601" filterUnits="userSpaceOnUse" color-interpolation-filters="sRGB">
<feFlood flood-opacity="0" result="BackgroundImageFix"/>
<feColorMatrix in="SourceAlpha" type="matrix" values="0 0 0 0 0 0 0 0 0 0 0 0 0 0 0 0 0 0 127 0" result="hardAlpha"/>
<feOffset dy="2.96817"/>
<feGaussianBlur stdDeviation="5.1943"/>
<feComposite in2="hardAlpha" operator="out"/>
<feColorMatrix type="matrix" values="0 0 0 0 0.0666667 0 0 0 0 0.0666667 0 0 0 0 0.0666667 0 0 0 0.1 0"/>
<feBlend mode="normal" in2="BackgroundImageFix" result="effect1_dropShadow_625_5957"/>
<feBlend mode="normal" in="SourceGraphic" in2="effect1_dropShadow_625_5957" result="shape"/>
</filter>
<linearGradient id="paint0_linear_625_5957" x1="466.097" y1="234.626" x2="466.097" y2="242.937" gradientUnits="userSpaceOnUse">
<stop stop-color="#426AF7" stop-opacity="0.44"/>
<stop offset="1" stop-color="#F0F0F0" stop-opacity="0"/>
</linearGradient>
<linearGradient id="paint1_linear_625_5957" x1="472.197" y1="226.423" x2="472.197" y2="242.937" gradientUnits="userSpaceOnUse">
<stop stop-color="#426AF7" stop-opacity="0.44"/>
<stop offset="1" stop-color="#F0F0F0" stop-opacity="0"/>
</linearGradient>
<linearGradient id="paint2_linear_625_5957" x1="478.293" y1="232.251" x2="478.293" y2="242.937" gradientUnits="userSpaceOnUse">
<stop stop-color="#426AF7" stop-opacity="0.44"/>
<stop offset="1" stop-color="#F0F0F0" stop-opacity="0"/>
</linearGradient>
<linearGradient id="paint3_linear_625_5957" x1="484.392" y1="226.423" x2="484.392" y2="242.937" gradientUnits="userSpaceOnUse">
<stop stop-color="#426AF7" stop-opacity="0.44"/>
<stop offset="1" stop-color="#F0F0F0" stop-opacity="0"/>
</linearGradient>
<clipPath id="clip0_625_5957">
<rect width="600" height="600" rx="50" fill="white"/>
</clipPath>
<clipPath id="clip1_625_5957">
<rect x="141.367" y="324.97" width="29.6828" height="29.6828" rx="14.8414" fill="white"/>
</clipPath>
</defs>
</svg>
