<svg width="600" height="600" viewBox="0 0 600 600" fill="none" xmlns="http://www.w3.org/2000/svg">
<g clipPath="url(#clip0_625_3949)">
<rect width="600" height="600" rx="50" fill="#0F193E"/>
<g opacity="0.3" filter="url(#filter0_f_625_3949)">
<circle cx="111.5" cy="121.5" r="193.5" fill="#466FFF"/>
</g>
<g opacity="0.5">
<path d="M679.61 152.594L668.571 109.377H603.144L592.105 152.594H552.367L608.563 -47.5685H663.152L719.348 152.594H679.61ZM658.536 70.7096L642.681 8.443C640.407 -0.844868 639.269 -8.52157 639.269 -14.5871C639.269 -17.999 638.132 -19.7049 635.858 -19.7049C633.717 -19.7049 632.646 -17.999 632.646 -14.5871C632.646 -10.9857 632.312 -7.47905 631.643 -4.06718C631.108 -0.655323 630.238 3.51474 629.034 8.443L613.179 70.7096H658.536Z" fill="white" fill-opacity="0.2"/>
<path d="M451.301 -47.5685L507.496 112.789C508.299 115.064 509.303 116.201 510.507 116.201C512.246 116.201 513.116 115.064 513.116 112.789C513.116 111.462 512.782 109.662 512.113 107.387C510.641 103.028 509.503 99.1418 508.701 95.7299C507.898 92.1285 507.496 88.5271 507.496 84.9257V-47.5685H544.425V152.594H486.624L430.428 -7.76337C429.626 -10.038 428.622 -11.1752 427.418 -11.1752C425.679 -11.1752 424.809 -10.038 424.809 -7.76337C424.809 -6.43654 425.143 -4.63583 425.812 -2.36125C427.284 1.99836 428.421 5.97887 429.224 9.58028C430.027 12.9922 430.428 16.4988 430.428 20.1002V152.594H393.5V-47.5685H451.301Z" fill="white" fill-opacity="0.2"/>
<path d="M347.418 152.594L336.38 109.377H270.952L259.914 152.594H220.176L276.371 -47.5685H330.961L387.157 152.594H347.418ZM326.345 70.7096L310.49 8.443C308.215 -0.844868 307.078 -8.52157 307.078 -14.5871C307.078 -17.999 305.941 -19.7049 303.666 -19.7049C301.525 -19.7049 300.455 -17.999 300.455 -14.5871C300.455 -10.9857 300.121 -7.47905 299.452 -4.06718C298.916 -0.655323 298.047 3.51474 296.842 8.443L280.987 70.7096H326.345Z" fill="white" fill-opacity="0.2"/>
<path d="M131.757 -47.5685V109.377H213.641V152.594H94.8281V-47.5685H131.757Z" fill="white" fill-opacity="0.2"/>
<path d="M38.5859 152.594V-47.5685H75.5144V152.594H38.5859Z" fill="white" fill-opacity="0.2"/>
<path d="M-7.56214 152.594L-18.6005 109.377H-84.0281L-95.0665 152.594H-134.805L-78.6092 -47.5685H-24.0194L32.1761 152.594H-7.56214ZM-28.6354 70.7096L-44.4906 8.443C-46.7652 -0.844868 -47.9025 -8.52157 -47.9025 -14.5871C-47.9025 -17.999 -49.0397 -19.7049 -51.3143 -19.7049C-53.4551 -19.7049 -54.5255 -17.999 -54.5255 -14.5871C-54.5255 -10.9857 -54.86 -7.47905 -55.529 -4.06718C-56.0642 -0.655323 -56.9339 3.51474 -58.138 8.443L-73.9932 70.7096H-28.6354Z" fill="white" fill-opacity="0.2"/>
</g>
<g opacity="0.25" filter="url(#filter1_f_625_3949)">
<circle cx="524.5" cy="737.5" r="314.5" fill="#466FFF"/>
</g>
<path d="M307 370L298 364.563C293.91 362.091 293.91 356.159 298 353.688V353.688C302.09 351.216 302.09 345.284 298 342.813V342.813C293.91 340.341 293.91 334.409 298 331.938V331.938C302.09 329.466 302.09 323.534 298 321.063V321.063C293.91 318.591 293.91 312.659 298 310.188V310.188C302.09 307.716 302.09 301.784 298 299.313V299.313C293.91 296.841 293.91 290.909 298 288.438L307 283" stroke="white" stroke-opacity="0.4"/>
<path d="M293 370L302 364.563C306.09 362.091 306.09 356.159 302 353.688V353.688C297.91 351.216 297.91 345.284 302 342.813V342.813C306.09 340.341 306.09 334.409 302 331.938V331.938C297.91 329.466 297.91 323.534 302 321.063V321.063C306.09 318.591 306.09 312.659 302 310.188V310.188C297.91 307.716 297.91 301.784 302 299.313V299.313C306.09 296.841 306.09 290.909 302 288.438L293 283" stroke="white" stroke-opacity="0.4"/>
<path d="M219 262C219 248.745 229.745 238 243 238H357C370.255 238 381 248.745 381 262C381 275.255 370.255 286 357 286H243C229.745 286 219 275.255 219 262Z" fill="url(#paint0_linear_625_3949)"/>
<g opacity="0.9">
<path d="M353.417 272.94L351.864 268.3H342.659L341.106 272.94H335.516L343.422 251.451H351.102L359.007 272.94H353.417ZM350.452 264.149L348.222 257.464C347.902 256.467 347.742 255.643 347.742 254.992C347.742 254.625 347.582 254.442 347.262 254.442C346.96 254.442 346.81 254.625 346.81 254.992C346.81 255.378 346.763 255.755 346.669 256.121C346.593 256.487 346.471 256.935 346.302 257.464L344.071 264.149H350.452Z" fill="white"/>
<path d="M321.3 251.451L329.206 268.666C329.319 268.91 329.46 269.033 329.629 269.033C329.874 269.033 329.996 268.91 329.996 268.666C329.996 268.524 329.949 268.33 329.855 268.086C329.648 267.618 329.488 267.201 329.375 266.835C329.262 266.448 329.206 266.062 329.206 265.675V251.451H334.401V272.94H326.269L318.363 255.724C318.25 255.48 318.109 255.358 317.94 255.358C317.695 255.358 317.573 255.48 317.573 255.724C317.573 255.867 317.62 256.06 317.714 256.304C317.921 256.772 318.081 257.2 318.194 257.586C318.307 257.952 318.363 258.329 318.363 258.716V272.94H313.168V251.451H321.3Z" fill="white"/>
<path d="M306.679 272.94L305.126 268.3H295.921L294.368 272.94H288.777L296.683 251.451H304.363L312.269 272.94H306.679ZM303.714 264.149L301.483 257.464C301.163 256.467 301.003 255.643 301.003 254.992C301.003 254.625 300.843 254.442 300.523 254.442C300.222 254.442 300.071 254.625 300.071 254.992C300.071 255.378 300.024 255.755 299.93 256.121C299.855 256.487 299.733 256.935 299.563 257.464L297.333 264.149H303.714Z" fill="white"/>
<path d="M276.34 251.451V268.3H287.86V272.94H271.145V251.451H276.34Z" fill="white"/>
<path d="M263.23 272.94V251.451H268.426V272.94H263.23Z" fill="white"/>
<path d="M256.745 272.94L255.192 268.3H245.987L244.434 272.94H238.844L246.75 251.451H254.43L262.336 272.94H256.745ZM253.78 264.149L251.55 257.464C251.23 256.467 251.07 255.643 251.07 254.992C251.07 254.625 250.91 254.442 250.59 254.442C250.288 254.442 250.138 254.625 250.138 254.992C250.138 255.378 250.091 255.755 249.997 256.121C249.921 256.487 249.799 256.935 249.63 257.464L247.399 264.149H253.78Z" fill="white"/>
</g>
<g filter="url(#filter2_d_625_3949)">
<rect x="85" y="371" width="430" height="280" rx="30" fill="white" fill-opacity="0.1" shape-rendering="crispEdges"/>
</g>
<g filter="url(#filter3_d_625_3949)">
<rect x="97" y="383" width="406" height="264" rx="18" fill="white"/>
</g>
<rect x="121" y="407" width="222" height="11" rx="5.5" fill="#466FFF" fill-opacity="0.2"/>
<rect x="121" y="439" width="222" height="11" rx="5.5" fill="#466FFF" fill-opacity="0.2"/>
<rect x="121" y="471" width="358" height="11" rx="5.5" fill="#466FFF" fill-opacity="0.2"/>
<rect x="121" y="503" width="358" height="11" rx="5.5" fill="#466FFF" fill-opacity="0.2"/>
<rect x="121" y="535" width="358" height="11" rx="5.5" fill="#466FFF" fill-opacity="0.2"/>
<rect x="121" y="567" width="358" height="11" rx="5.5" fill="#466FFF" fill-opacity="0.2"/>
<path fillRule="evenodd" clipRule="evenodd" d="M444 423C444.934 423 445.743 423.623 445.95 424.501L447.057 429.194C447.569 431.364 449.326 433.059 451.577 433.552L456.444 434.619C457.354 434.819 458 435.6 458 436.5C458 437.4 457.354 438.181 456.444 438.381L451.577 439.448C449.326 439.941 447.569 441.636 447.057 443.806L445.95 448.499C445.743 449.377 444.934 450 444 450C443.066 450 442.257 449.377 442.05 448.499L440.943 443.806C440.431 441.636 438.674 439.941 436.423 439.448L431.556 438.381C430.646 438.181 430 437.4 430 436.5C430 435.6 430.646 434.819 431.556 434.619L436.423 433.552C438.674 433.059 440.431 431.364 440.943 429.194L442.05 424.501C442.257 423.623 443.066 423 444 423ZM444 432.294C443.043 434.103 441.514 435.577 439.638 436.5C441.514 437.423 443.043 438.897 444 440.706C444.957 438.897 446.486 437.423 448.362 436.5C446.486 435.577 444.957 434.103 444 432.294Z" fill="#466FFF" fill-opacity="0.2"/>
<path fillRule="evenodd" clipRule="evenodd" d="M430 406C430.734 406 431.37 406.485 431.532 407.167L432.402 410.817C432.804 412.505 434.185 413.824 435.953 414.207L439.777 415.037C440.492 415.193 441 415.8 441 416.5C441 417.2 440.492 417.807 439.777 417.963L435.953 418.793C434.185 419.176 432.804 420.495 432.402 422.183L431.532 425.833C431.37 426.515 430.734 427 430 427C429.266 427 428.63 426.515 428.468 425.833L427.598 422.183C427.196 420.495 425.815 419.176 424.047 418.793L420.223 417.963C419.508 417.807 419 417.2 419 416.5C419 415.8 419.508 415.193 420.223 415.037L424.047 414.207C425.815 413.824 427.196 412.505 427.598 410.817L428.468 407.167C428.63 406.485 429.266 406 430 406ZM430 413.229C429.248 414.636 428.047 415.782 426.573 416.5C428.047 417.218 429.248 418.364 430 419.771C430.752 418.364 431.953 417.218 433.427 416.5C431.953 415.782 430.752 414.636 430 413.229Z" fill="#466FFF" fill-opacity="0.2"/>
<g clipPath="url(#clip1_625_3949)">
<path d="M344.955 2.40739H345.154C346.485 2.40739 347.566 1.32631 347.566 -0.00424981C347.566 -1.33481 346.485 -2.41589 345.154 -2.41589H344.955C343.624 -2.41589 342.543 -1.33481 342.543 -0.00424981C342.543 1.32631 343.624 2.40739 344.955 2.40739Z" fill="white"/>
<path d="M355.101 5.48443C356.49 5.48443 357.613 4.36176 357.613 2.97299V-2.96464C357.613 -4.35341 356.49 -5.47607 355.101 -5.47607C353.713 -5.47607 352.59 -4.35341 352.59 -2.96464V2.97299C352.59 4.36176 353.713 5.48443 355.101 5.48443Z" fill="white"/>
<path d="M364.812 2.17468H365.494C366.692 2.17468 367.664 1.20293 367.664 0.0042038C367.664 -1.19452 366.692 -2.16628 365.494 -2.16628H364.812C363.613 -2.16628 362.641 -1.19452 362.641 0.0042038C362.641 1.20293 363.613 2.17468 364.812 2.17468Z" fill="white"/>
<path d="M332.501 10.1081C332.501 11.4951 333.625 12.6195 335.012 12.6195C336.399 12.6195 337.523 11.4951 337.523 10.1081V-10.0998C337.523 -11.4869 336.399 -12.6113 335.012 -12.6113C333.625 -12.6113 332.501 -11.4869 332.501 -10.0998V10.1081Z" fill="white"/>
<path d="M324.957 17.6754C326.346 17.6754 327.468 16.5528 327.468 15.164V-15.1645C327.468 -16.5532 326.346 -17.6759 324.957 -17.6759C323.568 -17.6759 322.445 -16.5532 322.445 -15.1645V15.1723C322.445 16.5611 323.568 17.6838 324.957 17.6838V17.6754Z" fill="white"/>
<path d="M314.906 8.97708C316.295 8.97708 317.417 7.85441 317.417 6.46564V-6.45744C317.417 -7.84621 316.295 -8.96887 314.906 -8.96887C313.517 -8.96887 312.395 -7.84621 312.395 -6.45744V6.46564C312.395 7.85441 313.517 8.97708 314.906 8.97708Z" fill="white"/>
<path d="M304.855 19.3389C306.244 19.3389 307.367 18.2162 307.367 16.8275V-16.8274C307.367 -18.2162 306.244 -19.3389 304.855 -19.3389C303.466 -19.3389 302.344 -18.2162 302.344 -16.8274V16.8275C302.344 18.2162 303.466 19.3389 304.855 19.3389Z" fill="white"/>
<path d="M294.808 34C296.197 34 297.32 32.8773 297.32 31.4886V-31.4886C297.32 -32.8773 296.197 -34 294.808 -34C293.42 -34 292.297 -32.8773 292.297 -31.4886V31.4886C292.297 32.8773 293.42 34 294.808 34Z" fill="white"/>
<path d="M284.754 25.4013C286.142 25.4013 287.265 24.2786 287.265 22.8898V-22.8898C287.265 -24.2786 286.142 -25.4012 284.754 -25.4012C283.365 -25.4012 282.242 -24.2786 282.242 -22.8898V22.8898C282.242 24.2786 283.365 25.4013 284.754 25.4013Z" fill="white"/>
<path d="M274.707 19.3389C276.096 19.3389 277.218 18.2162 277.218 16.8275V-16.8274C277.218 -18.2162 276.096 -19.3389 274.707 -19.3389C273.318 -19.3389 272.195 -18.2162 272.195 -16.8274V16.8275C272.195 18.2162 273.318 19.3389 274.707 19.3389Z" fill="white"/>
<path d="M262.153 6.46562C262.153 7.85264 263.277 8.97705 264.664 8.97705C266.051 8.97705 267.176 7.85264 267.176 6.46562V-6.45746C267.176 -7.84449 266.051 -8.96889 264.664 -8.96889C263.277 -8.96889 262.153 -7.84449 262.153 -6.45746V6.46562Z" fill="white"/>
<path d="M254.613 17.6754C256.002 17.6754 257.124 16.5528 257.124 15.164V-15.1645C257.124 -16.5532 256.002 -17.6759 254.613 -17.6759C253.224 -17.6759 252.102 -16.5532 252.102 -15.1645V15.1723C252.102 16.5611 253.224 17.6838 254.613 17.6838V17.6754Z" fill="white"/>
<path d="M244.566 12.6194C245.955 12.6194 247.078 11.4968 247.078 10.108V-10.0999C247.078 -11.4887 245.955 -12.6113 244.566 -12.6113C243.177 -12.6113 242.055 -11.4887 242.055 -10.0999V10.108C242.055 11.4968 243.177 12.6194 244.566 12.6194Z" fill="white"/>
<path d="M234.167 2.17468H234.849C236.048 2.17468 237.02 1.20293 237.02 0.0042038C237.02 -1.19452 236.048 -2.16628 234.849 -2.16628H234.167C232.968 -2.16628 231.997 -1.19452 231.997 0.0042038C231.997 1.20293 232.968 2.17468 234.167 2.17468Z" fill="white"/>
</g>
<rect x="463" y="306" width="40" height="39.9962" rx="19.9981" fill="white" fill-opacity="0.4"/>
<path d="M482.994 312.157C482.994 312.157 483.076 312.151 483.233 312.154C483.405 312.16 483.638 312.166 483.932 312.175C484.086 312.181 484.258 312.181 484.448 312.198C484.637 312.224 484.841 312.254 485.062 312.286C485.286 312.318 485.525 312.353 485.781 312.388C486.035 312.449 486.3 312.517 486.585 312.587C487.713 312.879 489.079 313.376 490.477 314.288C491.872 315.188 493.322 316.474 494.502 318.218C495.658 319.969 496.55 322.17 496.785 324.642C496.809 325.262 496.882 325.89 496.823 326.53C496.8 326.849 496.809 327.173 496.762 327.494C496.713 327.816 496.666 328.14 496.617 328.468C496.354 329.756 495.97 331.077 495.309 332.311C494.662 333.544 493.826 334.719 492.807 335.762C491.767 336.785 490.555 337.673 489.204 338.36C487.858 339.05 486.364 339.526 484.812 339.713C484.427 339.789 484.034 339.789 483.641 339.813C483.247 339.839 482.854 339.854 482.455 339.833C481.663 339.801 480.868 339.702 480.084 339.532C478.378 339.167 476.773 338.471 475.363 337.539L475.506 337.554C473.869 338.214 472.264 338.86 470.697 339.491L470.411 339.605L470.493 339.307C470.979 337.536 471.451 335.815 471.906 334.149L471.929 334.278C470.58 332.477 469.718 330.423 469.363 328.383C469.185 327.363 469.109 326.346 469.176 325.364C469.197 324.87 469.22 324.385 469.313 323.914C469.351 323.678 469.386 323.441 469.421 323.207C469.465 322.976 469.535 322.751 469.59 322.523C470.519 318.891 472.747 316.211 474.955 314.674C476.059 313.893 477.151 313.332 478.147 312.984C478.395 312.894 478.637 312.809 478.867 312.727C479.103 312.666 479.333 312.61 479.548 312.552C479.767 312.496 479.974 312.447 480.172 312.397C480.373 312.359 480.565 312.338 480.746 312.309C481.11 312.262 481.427 312.201 481.71 312.186C481.986 312.178 482.219 312.169 482.417 312.163C482.595 312.16 482.738 312.157 482.848 312.154C482.945 312.154 482.994 312.154 482.994 312.16C482.994 312.166 482.945 312.172 482.848 312.181C482.738 312.189 482.598 312.201 482.417 312.216C482.222 312.23 481.989 312.245 481.715 312.262C481.439 312.283 481.121 312.353 480.76 312.409C479.345 312.669 477.224 313.236 475.054 314.825C472.89 316.36 470.717 319.019 469.823 322.588C469.771 322.81 469.701 323.032 469.66 323.26C469.625 323.491 469.59 323.722 469.555 323.952C469.468 324.417 469.447 324.893 469.427 325.376C469.366 326.34 469.444 327.34 469.622 328.336C469.977 330.335 470.828 332.343 472.153 334.102L472.197 334.161L472.177 334.231C471.722 335.897 471.256 337.621 470.773 339.392L470.569 339.211C472.136 338.577 473.741 337.931 475.375 337.267L475.45 337.238L475.517 337.282C476.898 338.194 478.468 338.872 480.134 339.228C480.9 339.392 481.678 339.491 482.452 339.523C482.84 339.541 483.227 339.526 483.609 339.503C483.993 339.48 484.378 339.482 484.753 339.407C486.271 339.225 487.73 338.764 489.049 338.088C490.372 337.422 491.56 336.554 492.58 335.555C493.579 334.535 494.397 333.386 495.035 332.182C495.687 330.978 496.066 329.686 496.328 328.424C496.378 328.105 496.427 327.787 496.474 327.471C496.52 327.155 496.515 326.837 496.538 326.524C496.599 325.896 496.529 325.279 496.509 324.671C496.287 322.246 495.425 320.077 494.301 318.347C493.153 316.62 491.735 315.34 490.366 314.44C488.997 313.522 487.651 313.014 486.539 312.71C486.259 312.634 485.994 312.563 485.747 312.496C485.493 312.455 485.257 312.414 485.036 312.379C484.817 312.344 484.614 312.309 484.427 312.277C484.241 312.257 484.069 312.251 483.917 312.239C483.623 312.219 483.393 312.201 483.224 312.189C483.067 312.175 482.988 312.166 482.988 312.16L482.994 312.157Z" fill="#0F193E"/>
<path d="M477.809 325.89C477.809 326.832 477.047 327.592 476.113 327.592C475.179 327.592 474.418 326.827 474.418 325.89C474.418 324.953 475.179 324.189 476.113 324.189C477.047 324.189 477.809 324.953 477.809 325.89Z" fill="#0F193E"/>
<path d="M482.899 327.592C483.835 327.592 484.594 326.83 484.594 325.89C484.594 324.951 483.835 324.189 482.899 324.189C481.962 324.189 481.203 324.951 481.203 325.89C481.203 326.83 481.962 327.592 482.899 327.592Z" fill="#0F193E"/>
<path d="M491.367 325.038C491.834 325.852 491.556 326.895 490.744 327.364C489.932 327.832 488.893 327.554 488.426 326.739C487.959 325.924 488.236 324.881 489.048 324.413C489.86 323.944 490.9 324.223 491.367 325.038Z" fill="#0F193E"/>
</g>
<defs>
<filter id="filter0_f_625_3949" x="-382" y="-372" width="987" height="987" filterUnits="userSpaceOnUse" color-interpolation-filters="sRGB">
<feFlood flood-opacity="0" result="BackgroundImageFix"/>
<feBlend mode="normal" in="SourceGraphic" in2="BackgroundImageFix" result="shape"/>
<feGaussianBlur stdDeviation="150" result="effect1_foregroundBlur_625_3949"/>
</filter>
<filter id="filter1_f_625_3949" x="-90" y="123" width="1229" height="1229" filterUnits="userSpaceOnUse" color-interpolation-filters="sRGB">
<feFlood flood-opacity="0" result="BackgroundImageFix"/>
<feBlend mode="normal" in="SourceGraphic" in2="BackgroundImageFix" result="shape"/>
<feGaussianBlur stdDeviation="150" result="effect1_foregroundBlur_625_3949"/>
</filter>
<filter id="filter2_d_625_3949" x="55" y="355" width="490" height="340" filterUnits="userSpaceOnUse" color-interpolation-filters="sRGB">
<feFlood flood-opacity="0" result="BackgroundImageFix"/>
<feColorMatrix in="SourceAlpha" type="matrix" values="0 0 0 0 0 0 0 0 0 0 0 0 0 0 0 0 0 0 127 0" result="hardAlpha"/>
<feOffset dy="14"/>
<feGaussianBlur stdDeviation="15"/>
<feComposite in2="hardAlpha" operator="out"/>
<feColorMatrix type="matrix" values="0 0 0 0 0.396078 0 0 0 0 0.270588 0 0 0 0 0.917647 0 0 0 0.14 0"/>
<feBlend mode="normal" in2="BackgroundImageFix" result="effect1_dropShadow_625_3949"/>
<feBlend mode="normal" in="SourceGraphic" in2="effect1_dropShadow_625_3949" result="shape"/>
</filter>
<filter id="filter3_d_625_3949" x="87" y="383" width="426" height="288" filterUnits="userSpaceOnUse" color-interpolation-filters="sRGB">
<feFlood flood-opacity="0" result="BackgroundImageFix"/>
<feColorMatrix in="SourceAlpha" type="matrix" values="0 0 0 0 0 0 0 0 0 0 0 0 0 0 0 0 0 0 127 0" result="hardAlpha"/>
<feOffset dy="14"/>
<feGaussianBlur stdDeviation="5"/>
<feComposite in2="hardAlpha" operator="out"/>
<feColorMatrix type="matrix" values="0 0 0 0 0.521569 0 0 0 0 0.545098 0 0 0 0 0.92549 0 0 0 1 0"/>
<feBlend mode="normal" in2="BackgroundImageFix" result="effect1_dropShadow_625_3949"/>
<feBlend mode="normal" in="SourceGraphic" in2="effect1_dropShadow_625_3949" result="shape"/>
</filter>
<linearGradient id="paint0_linear_625_3949" x1="178.811" y1="-2281.96" x2="413.713" y2="-2281.22" gradientUnits="userSpaceOnUse">
<stop stop-color="#858BEC"/>
<stop offset="0.938229" stop-color="#7BD7FF"/>
</linearGradient>
<clipPath id="clip0_625_3949">
<rect width="600" height="600" rx="50" fill="white"/>
</clipPath>
<clipPath id="clip1_625_3949">
<rect width="135.667" height="68" fill="white" transform="translate(232 -34)"/>
</clipPath>
</defs>
</svg>
